<svg xmlns="http://www.w3.org/2000/svg" width="18" height="18" viewBox="0 0 48 48">
  <path fill="#EA4335" d="M24 9.5c3.54 0 6.72 1.22 9.22 3.61l6.85-6.85C35.9 2.3 30.47 0 24 0 14.62 0 6.51 5.38 2.56 13.22l7.98 6.2C12.59 13.02 17.85 9.5 24 9.5z"/>
  <path fill="#4285F4" d="M46.5 24.5c0-1.6-.14-3.16-.41-4.66H24v9.04h12.75c-.55 2.98-2.21 5.51-4.72 7.21l7.61 5.92C43.9 38.01 46.5 31.8 46.5 24.5z"/>
  <path fill="#FBBC05" d="M10.54 28.57a14.52 14.52 0 0 1-.76-4.57c0-1.58.26-3.12.74-4.57l-7.96-6.2C1.56 16.37 0 20.05 0 24c0 3.95 1.56 7.63 4.56 10.77l7.98-6.2z"/>
  <path fill="#34A853" d="M24 48c6.48 0 11.92-2.13 15.89-5.8l-7.61-5.92c-2.13 1.44-4.86 2.22-8.28 2.22-6.14 0-11.36-3.39-13.81-8.33l-7.98 6.2C6.51 42.62 14.62 48 24 48z"/>
  <path fill="none" d="M0 0h48v48H0z"/>
</svg>
